<svg width="85" height="90" viewBox="0 0 85 90" fill="none" xmlns="http://www.w3.org/2000/svg">
<path d="M57.2208 0C56.3153 0 55.5809 0.787148 55.5809 1.75781V9.84375C55.5809 10.8144 56.3153 11.6016 57.2208 11.6016C58.1264 11.6016 58.8607 10.8144 58.8607 9.84375V1.75781C58.8607 0.787148 58.1264 0 57.2208 0Z" fill="#3F3D56"/>
<path d="M19.5032 54.8438C18.598 54.8438 17.8633 55.6313 17.8633 56.6016C17.8633 57.5719 18.598 58.3594 19.5032 58.3594C20.4084 58.3594 21.1431 57.5719 21.1431 56.6016C21.1431 55.6313 20.4084 54.8438 19.5032 54.8438Z" fill="#3F3D56"/>
<path d="M80.1793 51.3281C80.1793 47.4511 77.2366 44.2969 73.6197 44.2969H61.3775C63.2728 39.0932 64.0399 32.9683 63.892 27.5161C63.8638 26.4756 63.8266 25.8739 63.7762 25.4951C63.6914 21.697 60.7819 18.6328 57.2207 18.6328C53.6038 18.6328 50.6612 21.787 50.6612 25.6641V27.4219C50.6612 38.5393 37.3429 44.7857 27.292 47.4643C26.5321 45.6021 24.7974 44.2969 22.783 44.2969H6.38403C5.47849 44.2969 4.74414 45.084 4.74414 46.0547V88.2422C4.74414 89.2129 5.47849 90 6.38403 90H22.783C24.784 90 26.5086 88.7121 27.2764 86.8695C28.1087 87.0984 28.8812 87.3146 29.5944 87.5143C35.3201 89.1172 38.4741 90 46.1449 90H63.7803C67.3973 90 70.3399 86.8458 70.3399 82.9688C70.3399 81.5231 69.9304 80.1784 69.2297 79.0597C71.763 78.11 73.6197 75.5154 73.6197 72.4219C73.6197 70.9815 73.2202 69.6324 72.5216 68.5086C75.0438 67.5573 76.8995 64.9688 76.8995 61.875C76.8995 60.4294 76.49 59.0846 75.7893 57.966C78.3226 57.0162 80.1793 54.4217 80.1793 51.3281ZM24.4229 84.7266C24.4229 85.6958 23.6872 86.4844 22.783 86.4844H8.02393V47.8125H22.783C23.6872 47.8125 24.4229 48.6011 24.4229 49.5703V84.7266ZM73.6197 54.8438C70.1023 54.8438 69.2638 54.8438 65.4202 54.8438C64.5147 54.8438 63.7803 55.6309 63.7803 56.6016C63.7803 57.5722 64.5147 58.3594 65.4202 58.3594H70.3399C72.1484 58.3594 73.6197 59.9365 73.6197 61.875C73.6197 63.8167 72.1513 65.3906 70.3399 65.3906H62.1404C61.2349 65.3906 60.5005 66.1778 60.5005 67.1484C60.5005 68.1191 61.2349 68.9062 62.1404 68.9062H67.0601C68.8471 68.9062 70.3399 70.4364 70.3399 72.4219C70.3399 74.3636 68.8715 75.9375 67.0601 75.9375C63.5427 75.9375 62.7042 75.9375 58.8606 75.9375C57.9551 75.9375 57.2207 76.7246 57.2207 77.6953C57.2207 78.666 57.9551 79.4531 58.8606 79.4531H63.7803C65.5888 79.4531 67.0601 81.0302 67.0601 82.9688C67.0601 84.9073 65.5888 86.4844 63.7803 86.4844H46.1449C38.8954 86.4844 36.064 85.6918 30.4232 84.1127C29.5969 83.8814 28.6905 83.6278 27.7027 83.3578V50.981C39.5702 47.9508 53.941 40.5547 53.941 27.4219V25.6641C53.941 23.7255 55.4123 22.1484 57.2207 22.1484C59.0259 22.1484 60.4971 23.7231 60.5005 25.6586V25.6641C60.5005 26.428 61.39 35.8037 57.8232 44.2969H52.3011C51.3955 44.2969 50.6612 45.084 50.6612 46.0547C50.6612 47.0254 51.3955 47.8125 52.3011 47.8125C53.4462 47.8125 71.7505 47.8125 73.6197 47.8125C75.4282 47.8125 76.8995 49.3896 76.8995 51.3281C76.8995 53.2698 75.4311 54.8438 73.6197 54.8438Z" fill="#3F3D56"/>
<path d="M19.5032 61.875C18.5976 61.875 17.8633 62.6621 17.8633 63.6328V77.6953C17.8633 78.666 18.5976 79.4531 19.5032 79.4531C20.4087 79.4531 21.1431 78.666 21.1431 77.6953V63.6328C21.1431 62.6621 20.4087 61.875 19.5032 61.875Z" fill="#3F3D56"/>
<path d="M44.1017 22.1484H37.5421C36.6366 22.1484 35.9022 22.9356 35.9022 23.9062C35.9022 24.8769 36.6366 25.6641 37.5421 25.6641H44.1017C45.0072 25.6641 45.7416 24.8769 45.7416 23.9062C45.7416 22.9356 45.0072 22.1484 44.1017 22.1484Z" fill="#3F3D56"/>
<path d="M76.8995 22.1484H70.34C69.4344 22.1484 68.7001 22.9356 68.7001 23.9062C68.7001 24.8769 69.4344 25.6641 70.34 25.6641H76.8995C77.8051 25.6641 78.5394 24.8769 78.5394 23.9062C78.5394 22.9356 77.8051 22.1484 76.8995 22.1484Z" fill="#3F3D56"/>
<path d="M72.2948 7.74827C71.6543 7.06202 70.6162 7.06202 69.9755 7.74827L65.3381 12.7192C64.6977 13.4056 64.6977 14.5187 65.3381 15.2053C65.9788 15.8917 67.0167 15.8915 67.6574 15.2053L72.2948 10.2343C72.9352 9.54792 72.9352 8.43487 72.2948 7.74827Z" fill="#3F3D56"/>
<path d="M49.1035 12.7192L44.4661 7.74827C43.8255 7.06202 42.7875 7.06202 42.1468 7.74827C41.5064 8.43469 41.5064 9.54774 42.1468 10.2343L46.7842 15.2053C47.4251 15.8917 48.463 15.8915 49.1035 15.2053C49.7439 14.5188 49.7439 13.4058 49.1035 12.7192Z" fill="#3F3D56"/>
</svg>
