<svg width="76" height="80" viewBox="0 0 76 80" fill="none" xmlns="http://www.w3.org/2000/svg">
<g clip-path="url(#clip0)">
<path d="M39.8644 38.0235C39.2944 37.4126 38.3717 37.4126 37.8017 38.0235C37.2332 38.6329 37.2332 39.622 37.8017 40.2329C38.3717 40.8423 39.2944 40.8423 39.8644 40.2329C40.4328 39.622 40.4328 38.6329 39.8644 38.0235Z" fill="#3F3D56"/>
<path d="M58.4164 18.1359C55.5681 15.0829 50.9571 15.0828 48.1087 18.1359C45.2678 21.1811 45.2677 26.1373 48.1091 29.185C50.951 32.2293 55.5748 32.2306 58.4164 29.1846C61.2644 26.1318 61.265 21.1892 58.4164 18.1359ZM56.3549 26.9748C54.6505 28.802 51.8759 28.802 50.1706 26.9751C48.4658 25.1467 48.4657 22.1726 50.1703 20.3456C51.8791 18.5139 54.6458 18.5136 56.3549 20.3456C58.0638 22.1772 58.064 25.1429 56.3549 26.9748Z" fill="#3F3D56"/>
<path d="M74.9081 0.457549C74.6219 0.15083 74.2312 -0.0154192 73.8251 0.000986991C73.4955 0.0136432 65.6481 0.351768 56.3197 3.88598C48.8447 6.71504 42.6141 10.7655 37.801 15.9249C36.7225 17.081 35.6729 18.3069 34.6687 19.5805C29.9097 16.5777 26.0961 17.5192 23.6853 18.9022C18.1343 22.0866 14.6984 30.7328 14.6984 36.9172C14.6988 37.549 15.054 38.1189 15.5986 38.3606C15.7789 38.4408 15.9684 38.4797 16.1562 38.4797C16.5356 38.4797 16.9084 38.3208 17.1872 38.022C20.1147 34.884 23.7255 35.0803 24.905 35.2465L25.4155 35.7937C24.4109 38.3562 23.6016 40.9043 23.008 43.3826C22.7937 44.2795 22.866 45.2286 23.1845 46.0967C21.7811 46.79 20.427 47.8079 19.2481 49.0717C15.4959 53.0939 14.7339 62.896 14.7033 63.3113C14.6698 63.7671 14.824 64.2159 15.1256 64.5391C15.4001 64.8332 15.7714 64.9968 16.1562 64.9968C16.1944 64.9968 16.2327 64.9952 16.2711 64.992C16.6585 64.9593 25.8034 64.1426 29.5556 60.1206C30.7342 58.8573 31.6837 57.406 32.3305 55.902C33.1879 56.2634 34.0704 56.3079 34.8639 56.0899C37.1749 55.4538 39.5518 54.5867 41.9427 53.5096L42.4532 54.0568C42.6081 55.3214 42.7912 59.1918 39.8639 62.3295C39.4472 62.7763 39.3224 63.4484 39.548 64.0321C39.7735 64.616 40.305 64.9966 40.8946 64.9966C46.6641 64.9966 54.7302 61.3137 57.701 55.3635C58.9911 52.7796 59.8695 48.6918 57.0682 43.5904C58.2557 42.5145 59.3996 41.3895 60.4786 40.2329C65.2918 35.0736 69.0704 28.395 71.7097 20.3831C75.007 10.3835 75.3223 1.97161 75.3341 1.61848C75.3487 1.18489 75.1943 0.764423 74.9081 0.457549ZM17.9574 33.5564C18.863 28.8591 21.493 23.7045 25.0615 21.6574C27.4461 20.2895 30.0526 20.4236 32.8239 22.0497C30.4629 25.3781 28.4103 28.9641 26.6994 32.7508C26.6777 32.7364 26.4153 32.3828 25.9279 32.265C25.7275 32.2164 21.8706 31.3272 17.9574 33.5564ZM27.4942 57.9107C25.4899 60.0592 20.7881 61.1923 17.8163 61.6549C18.2481 58.4693 19.3054 53.4296 21.3095 51.2814C22.4319 50.0782 23.7334 49.166 25.0415 48.6523L29.9469 53.9104C29.4676 55.3126 28.6167 56.7076 27.4942 57.9107ZM34.1397 53.0628C33.7179 53.1785 33.2293 53.0085 32.866 52.6198C30.9802 50.5984 30.2425 49.8076 30.011 49.5596C29.5865 49.1046 28.5456 47.9889 26.2464 45.5242C25.8829 45.1337 25.7243 44.6101 25.832 44.1587C26.2989 42.2097 26.9095 40.21 27.652 38.1911L39.7063 51.1121C37.8226 51.9082 35.9573 52.5626 34.1397 53.0628ZM55.1309 53.889C53.2211 57.7138 48.4125 60.5332 44.0304 61.5037C45.4276 58.6854 45.7356 55.0978 45.2251 52.9223C45.1066 52.417 44.799 52.1629 44.7818 52.1331C48.3142 50.2992 51.6595 48.099 54.7649 45.5682C56.2819 48.5392 56.4068 51.3334 55.1309 53.889ZM58.4174 38.0233C57.1039 39.4311 55.6895 40.7912 54.2135 42.0657C50.6652 45.1282 46.7598 47.7223 42.5931 49.7873L28.888 35.097C30.8145 30.6305 33.2345 26.4442 36.0913 22.6413C37.2813 21.058 38.5501 19.5417 39.863 18.1345C44.1814 13.5055 49.7547 9.82144 56.4326 7.16957L68.6468 20.262C66.1731 27.42 62.7362 33.394 58.4174 38.0233ZM69.6956 16.9666L59.507 6.04535C65.058 4.19723 69.8872 3.5052 72.2976 3.25645C72.0654 5.84066 71.4196 11.0171 69.6956 16.9666Z" fill="#3F3D56"/>
<path d="M35.7405 64.5388C35.1709 63.9287 34.2479 63.929 33.6789 64.5391L29.5565 68.9594C28.9875 69.5697 28.9876 70.5591 29.5568 71.1691C30.1263 71.7791 31.0494 71.7791 31.6184 71.1688L35.7407 66.7485C36.3098 66.1382 36.3097 65.1488 35.7405 64.5388Z" fill="#3F3D56"/>
<path d="M15.1263 42.4423C14.5573 41.832 13.6344 41.832 13.0649 42.442L8.94111 46.8607C8.37174 47.4707 8.3716 48.4601 8.94068 49.0704C9.50961 49.6804 10.4325 49.681 11.0021 49.0707L15.1259 44.652C15.6953 44.042 15.6954 43.0526 15.1263 42.4423Z" fill="#3F3D56"/>
<path d="M25.4334 66.7499C24.8645 66.1397 23.9414 66.1397 23.372 66.7497L13.4977 77.3325C12.9283 77.9427 12.9283 78.9321 13.4975 79.5422C14.0665 80.1524 14.9896 80.1527 15.559 79.5424L25.4333 68.9596C26.0027 68.3494 26.0027 67.36 25.4334 66.7499Z" fill="#3F3D56"/>
<path d="M13.7709 66.7499C13.2018 66.1397 12.2787 66.1397 11.7095 66.7497L1.83513 77.3325C1.26576 77.9427 1.26576 78.9321 1.83498 79.5422C2.40391 80.1524 3.32706 80.1527 3.89643 79.5424L13.7708 68.9596C14.3401 68.3494 14.3401 67.36 13.7709 66.7499Z" fill="#3F3D56"/>
<path d="M13.0635 53.4902C12.4944 52.8802 11.5713 52.8802 11.002 53.4903L1.12917 64.0747C0.559946 64.685 0.559946 65.6742 1.12932 66.2845C1.69854 66.8947 2.62154 66.8947 3.19077 66.2844L13.0636 55.7C13.6329 55.0897 13.6329 54.1005 13.0635 53.4902Z" fill="#3F3D56"/>
<path d="M46.048 31.3935C45.4786 30.7834 44.5559 30.7834 43.9864 31.3935L41.9252 33.6029C41.356 34.2131 41.356 35.2024 41.9252 35.8127C42.4946 36.4229 43.4174 36.4229 43.9868 35.8127L46.048 33.6034C46.6172 32.9932 46.6172 32.0038 46.048 31.3935Z" fill="#3F3D56"/>
</g>
<defs>
<clipPath id="clip0">
<rect width="74.6334" height="80" fill="white" transform="translate(0.702026)"/>
</clipPath>
</defs>
</svg>
