<svg width="85" height="90" viewBox="0 0 85 90" fill="none" xmlns="http://www.w3.org/2000/svg">
<g clip-path="url(#clip0)">
<path d="M73.5919 21.7653C74.3784 21.7653 75.1367 21.4307 75.696 20.831L83.9394 11.9948C85.041 10.8141 84.3237 8.7877 82.7717 8.68329L78.385 8.38815L81.2474 5.31989C81.7277 4.80503 81.7277 3.97025 81.2474 3.45556C80.7669 2.9407 79.9883 2.9407 79.508 3.45556L76.6455 6.52382L76.3702 1.82168C76.2726 0.155099 74.3804 -0.608493 73.2808 0.569942L65.0372 9.4061C64.4336 10.0531 64.1183 10.948 64.1717 11.8612L64.4551 16.7001C57.5751 10.4121 48.708 6.80612 39.3151 6.80612C17.867 6.80612 0.508545 25.4104 0.508545 48.4029C0.508545 58.7794 4.09335 68.7179 10.6029 76.3872C11.0603 76.9257 11.8381 76.965 12.3404 76.4751C12.8428 75.985 12.8795 75.1513 12.4225 74.6127C6.32589 67.43 2.96838 58.1218 2.96838 48.4029C2.96838 26.9202 19.2735 9.44266 39.3151 9.44266C48.7071 9.44266 57.5448 13.3011 64.1553 19.912L58.5433 25.9274C53.468 20.9336 46.7105 17.8777 39.3151 17.8777C23.6126 17.8777 10.8377 31.5712 10.8377 48.4027C10.8377 53.2469 11.9279 58.0719 13.9909 62.3564C13.9911 62.3566 13.9911 62.3568 13.9912 62.3569C18.7713 72.2852 28.3983 78.9278 39.3152 78.9278C52.7671 78.9278 64.4666 68.7432 67.2009 54.6092C67.3388 53.8962 66.9115 53.1984 66.2463 53.0506C65.5814 52.9027 64.9303 53.3608 64.7924 54.0738C62.3017 66.9473 51.5872 76.2911 39.3154 76.2911C29.5402 76.2911 20.6739 70.4884 16.1772 61.1477C16.1772 61.1476 16.177 61.1474 16.177 61.1472C14.2666 57.179 13.2977 52.8911 13.2977 48.4027C13.2977 33.0251 24.9691 20.5144 39.3152 20.5144C46.0339 20.5144 52.1766 23.2745 56.8045 27.7912L51.2425 33.7532C48.0506 30.7635 43.8771 28.9494 39.3152 28.9494C29.3083 28.9494 21.1671 37.6761 21.1671 48.4026C21.1671 59.1291 29.3083 67.8557 39.3152 67.8557C49.3222 67.8557 57.4636 59.1291 57.4636 48.4026C57.4636 43.5127 55.7712 39.0391 52.9819 35.6177L58.5443 29.6554C62.7253 34.5762 65.2942 41.0969 65.3323 48.2403C65.336 48.9658 65.8861 49.5511 66.562 49.5511H66.5692C67.2485 49.5469 67.7959 48.9533 67.7921 48.2252C67.7501 40.3616 64.9064 33.1875 60.2837 27.7907L65.8961 21.7747C72.0369 28.8128 75.6618 38.2298 75.6618 48.4024C75.6616 69.8856 59.3567 87.3632 39.3151 87.3632C31.0125 87.3632 22.894 84.2845 16.4553 78.6945C15.9271 78.2365 15.1533 78.3235 14.7254 78.8891C14.2979 79.455 14.3792 80.2852 14.9069 80.7434C21.7824 86.7126 30.4506 89.9999 39.3151 89.9999C60.7632 89.9999 78.1216 71.3956 78.1216 48.4029C78.1216 39.4007 75.4824 30.8329 70.4896 23.6262C69.9727 22.8801 69.4343 22.1567 68.8779 21.4541C73.6993 21.7788 73.4394 21.7653 73.5919 21.7653ZM55.0036 48.4029C55.0036 57.6755 47.9658 65.2193 39.3151 65.2193C30.6645 65.2193 23.6267 57.6755 23.6267 48.4029C23.6267 39.1303 30.6645 31.5865 39.3151 31.5865C43.1987 31.5865 46.7566 33.1075 49.4991 35.6221L43.9022 41.6215C42.6126 40.6165 41.0278 40.0215 39.3151 40.0215C35.0036 40.0215 31.4959 43.7815 31.4959 48.4029C31.4959 53.0244 35.0036 56.7843 39.3151 56.7843C43.6267 56.7843 47.1344 53.0244 47.1344 48.4029C47.1344 46.5669 46.5793 44.8681 45.6418 43.486L51.2387 37.4866C53.5844 40.4263 55.0036 44.2401 55.0036 48.4029ZM38.4453 49.3353C38.9258 49.8501 39.7044 49.8501 40.1847 49.3353L43.8715 45.3834C44.3799 46.2614 44.6744 47.2958 44.6744 48.4031C44.6744 51.5708 42.2702 54.1478 39.3149 54.1478C36.3597 54.1478 33.9556 51.5707 33.9556 48.4031C33.9556 45.2355 36.3597 42.6584 39.3149 42.6584C40.3479 42.6584 41.313 42.9741 42.1321 43.5188L38.4451 47.4709C37.965 47.9856 37.965 48.8204 38.4453 49.3353ZM66.6268 11.696C66.6174 11.5376 66.6722 11.3824 66.7768 11.2704L74.0051 3.52253L74.3264 9.00971L66.9335 16.9343L66.6268 11.696ZM68.6729 18.7986L76.0658 10.874L81.1849 11.2184L73.9566 18.9665C73.8521 19.0786 73.7062 19.1382 73.5596 19.1273L68.6729 18.7986Z" fill="#3F3D56"/>
</g>
<defs>
<clipPath id="clip0">
<rect width="83.9626" height="90" fill="white" transform="translate(0.508545)"/>
</clipPath>
</defs>
</svg>
