<svg width="847" height="523" viewBox="0 0 847 523" fill="none" xmlns="http://www.w3.org/2000/svg">
<path d="M150.648 518.45C158.725 511.846 163.631 501.413 162.344 491.256C161.058 481.1 153.089 471.763 142.752 469.606C132.415 467.449 120.631 473.419 117.492 483.191C115.764 464.352 113.773 444.725 103.422 428.682C94.0501 414.156 77.8175 403.762 60.2251 401.903C42.6327 400.043 24.1101 407.066 13.1384 420.503C2.16662 433.939 -0.519787 453.473 7.16454 468.899C12.8253 480.262 23.2545 488.72 34.1816 495.6C69.4912 517.645 111.84 526.61 153.437 520.845L150.648 518.45Z" fill="#F2F2F2"/>
<path d="M30.5352 407.455C45.0511 418.896 58.3679 431.692 70.2931 445.658C82.2201 459.609 92.7205 474.647 101.647 490.56C106.636 499.487 111.119 508.67 115.073 518.07C115.88 519.982 112.671 520.814 111.874 518.923C104.869 502.352 96.2023 486.485 85.9986 471.55C75.8445 456.669 64.2225 442.776 51.296 430.067C43.9847 422.882 36.2707 416.091 28.1889 409.726C26.5323 408.421 28.8923 406.161 30.5352 407.455V407.455Z" fill="white"/>
<path d="M632.649 0H195.227C193.56 0.00178979 191.962 0.643351 190.783 1.78394C189.604 2.92452 188.941 4.47098 188.94 6.08401V292.901C188.941 294.515 189.604 296.061 190.783 297.202C191.962 298.342 193.56 298.984 195.227 298.986H632.649C634.316 298.984 635.914 298.342 637.093 297.202C638.272 296.061 638.935 294.515 638.936 292.901V6.08401C638.935 4.47098 638.272 2.92452 637.093 1.78394C635.914 0.643351 634.316 0.00178979 632.649 0V0ZM637.14 292.901C637.14 294.054 636.666 295.159 635.824 295.974C634.982 296.789 633.84 297.247 632.649 297.247H195.227C194.036 297.247 192.894 296.789 192.052 295.974C191.21 295.159 190.737 294.054 190.736 292.901V6.08401C190.737 4.93159 191.21 3.82651 192.052 3.01163C192.894 2.19675 194.036 1.73875 195.227 1.73829H632.649C633.84 1.73875 634.982 2.19675 635.824 3.01163C636.666 3.82651 637.14 4.93159 637.14 6.08401V292.901Z" fill="#3F3D56"/>
<path d="M638.038 24.3708H189.838V26.1091H638.038V24.3708Z" fill="#3F3D56"/>
<path d="M205.107 18.252C208.084 18.252 210.496 15.9172 210.496 13.0372C210.496 10.1571 208.084 7.8223 205.107 7.8223C202.131 7.8223 199.718 10.1571 199.718 13.0372C199.718 15.9172 202.131 18.252 205.107 18.252Z" fill="#3F3D56"/>
<path d="M220.601 18.252C223.577 18.252 225.99 15.9172 225.99 13.0372C225.99 10.1571 223.577 7.8223 220.601 7.8223C217.625 7.8223 215.212 10.1571 215.212 13.0372C215.212 15.9172 217.625 18.252 220.601 18.252Z" fill="#3F3D56"/>
<path d="M236.095 18.252C239.071 18.252 241.484 15.9172 241.484 13.0372C241.484 10.1571 239.071 7.8223 236.095 7.8223C233.119 7.8223 230.706 10.1571 230.706 13.0372C230.706 15.9172 233.119 18.252 236.095 18.252Z" fill="#3F3D56"/>
<path d="M451.662 64.7512H376.214C374.546 64.7512 372.947 64.1102 371.768 62.9693C370.589 61.8283 369.926 60.2808 369.926 58.6672C369.926 57.0536 370.589 55.5061 371.768 54.3652C372.947 53.2242 374.546 52.5832 376.214 52.5832H451.662C453.33 52.5832 454.929 53.2242 456.108 54.3652C457.287 55.5061 457.95 57.0536 457.95 58.6672C457.95 60.2808 457.287 61.8283 456.108 62.9693C454.929 64.1102 453.33 64.7512 451.662 64.7512V64.7512Z" fill="#CCCCCC"/>
<path d="M503.309 94.3021H324.567C322.9 94.3021 321.301 93.6611 320.122 92.5201C318.942 91.3792 318.28 89.8317 318.28 88.2181C318.28 86.6045 318.942 85.057 320.122 83.9161C321.301 82.7751 322.9 82.1341 324.567 82.1341H503.309C504.976 82.1341 506.575 82.7751 507.755 83.9161C508.934 85.057 509.596 86.6045 509.596 88.2181C509.596 89.8317 508.934 91.3792 507.755 92.5201C506.575 93.6611 504.976 94.3021 503.309 94.3021Z" fill="#CCCCCC"/>
<path d="M556.914 275.911C550.139 275.911 543.516 273.966 537.883 270.324C532.25 266.682 527.859 261.505 525.266 255.448C522.674 249.391 521.995 242.726 523.317 236.296C524.639 229.866 527.901 223.96 532.692 219.324C537.483 214.689 543.586 211.532 550.231 210.253C556.876 208.974 563.764 209.63 570.023 212.139C576.282 214.648 581.632 218.896 585.396 224.348C589.16 229.799 591.169 236.207 591.169 242.763C591.159 251.551 587.547 259.977 581.125 266.191C574.703 272.405 565.996 275.901 556.914 275.911V275.911ZM556.914 211.902C550.606 211.902 544.44 213.712 539.195 217.103C533.951 220.494 529.863 225.314 527.449 230.953C525.035 236.592 524.403 242.797 525.634 248.784C526.865 254.77 529.902 260.269 534.362 264.585C538.823 268.901 544.506 271.841 550.692 273.032C556.879 274.222 563.291 273.611 569.119 271.275C574.947 268.939 579.928 264.984 583.432 259.909C586.937 254.834 588.807 248.867 588.807 242.763C588.797 234.581 585.434 226.737 579.455 220.951C573.476 215.166 565.37 211.911 556.914 211.902V211.902Z" fill="#3F3D56"/>
<path d="M269.728 187.134C262.953 187.134 256.33 185.19 250.697 181.547C245.063 177.905 240.673 172.728 238.08 166.671C235.487 160.614 234.809 153.95 236.131 147.52C237.452 141.09 240.715 135.183 245.506 130.548C250.296 125.912 256.4 122.755 263.045 121.476C269.69 120.197 276.577 120.853 282.837 123.362C289.096 125.871 294.446 130.12 298.21 135.571C301.974 141.022 303.983 147.43 303.983 153.986C303.973 162.775 300.361 171.2 293.939 177.414C287.517 183.628 278.81 187.124 269.728 187.134V187.134ZM269.728 123.125C263.42 123.125 257.254 124.935 252.009 128.326C246.764 131.717 242.677 136.537 240.263 142.176C237.849 147.815 237.217 154.021 238.448 160.007C239.678 165.994 242.716 171.493 247.176 175.809C251.636 180.125 257.319 183.064 263.506 184.255C269.692 185.445 276.105 184.834 281.933 182.499C287.76 180.163 292.741 176.207 296.246 171.132C299.75 166.057 301.621 160.09 301.621 153.986C301.611 145.804 298.248 137.96 292.269 132.174C286.29 126.389 278.183 123.134 269.728 123.125V123.125Z" fill="#3F3D56"/>
<path d="M283.034 171.558C282.137 171.558 281.277 171.214 280.642 170.601C280.007 169.988 279.65 169.156 279.649 168.288V149.689C279.65 148.822 280.006 147.991 280.639 147.378C281.273 146.765 282.132 146.42 283.028 146.419H283.034C283.93 146.42 284.789 146.765 285.423 147.378C286.056 147.991 286.413 148.822 286.413 149.689V168.288C286.413 169.155 286.056 169.986 285.423 170.599C284.789 171.212 283.93 171.557 283.034 171.558ZM274.21 171.558C273.763 171.562 273.319 171.481 272.904 171.319C272.489 171.157 272.112 170.917 271.793 170.613C271.474 170.309 271.221 169.947 271.048 169.548C270.874 169.149 270.784 168.721 270.782 168.288V158.269C270.783 157.402 271.139 156.571 271.773 155.958C272.406 155.345 273.265 155 274.161 154.999H274.21C275.106 155 275.965 155.345 276.598 155.958C277.232 156.571 277.588 157.402 277.589 158.269V168.288C277.588 169.155 277.232 169.986 276.598 170.599C275.965 171.212 275.106 171.557 274.21 171.558V171.558ZM265.301 171.558C264.404 171.558 263.543 171.214 262.909 170.601C262.274 169.988 261.917 169.156 261.915 168.288V139.685C261.916 138.818 262.273 137.987 262.906 137.374C263.54 136.761 264.399 136.416 265.295 136.415H265.301C266.197 136.416 267.056 136.761 267.689 137.374C268.323 137.987 268.679 138.818 268.68 139.685V168.288C268.679 169.155 268.323 169.986 267.689 170.599C267.056 171.212 266.197 171.557 265.301 171.558V171.558ZM256.425 171.558C255.981 171.558 255.541 171.474 255.13 171.31C254.72 171.146 254.347 170.904 254.032 170.601C253.718 170.297 253.469 169.936 253.299 169.538C253.129 169.141 253.042 168.715 253.042 168.285L253.046 163.989C253.046 163.122 253.403 162.29 254.037 161.677C254.671 161.064 255.531 160.72 256.427 160.721C257.323 160.721 258.182 161.066 258.816 161.679C259.449 162.293 259.805 163.125 259.805 163.992V168.288C259.804 169.155 259.447 169.986 258.814 170.599C258.18 171.212 257.321 171.557 256.425 171.558V171.558Z" fill="#D0826F"/>
<path d="M789.374 520.885C782.599 520.885 775.976 518.941 770.342 515.299C764.709 511.656 760.319 506.479 757.726 500.423C755.133 494.366 754.455 487.701 755.777 481.271C757.098 474.841 760.361 468.935 765.152 464.299C769.942 459.663 776.046 456.506 782.691 455.227C789.336 453.948 796.223 454.605 802.483 457.113C808.742 459.622 814.092 463.871 817.856 469.322C821.62 474.773 823.629 481.182 823.629 487.738C823.619 496.526 820.007 504.951 813.585 511.165C807.163 517.38 798.456 520.875 789.374 520.885ZM789.374 456.876C783.066 456.876 776.9 458.686 771.655 462.077C766.41 465.468 762.322 470.288 759.909 475.927C757.495 481.567 756.863 487.772 758.094 493.758C759.324 499.745 762.362 505.244 766.822 509.56C771.282 513.876 776.965 516.815 783.152 518.006C789.338 519.197 795.751 518.586 801.579 516.25C807.406 513.914 812.387 509.958 815.892 504.883C819.396 499.808 821.267 493.841 821.267 487.738C821.257 479.556 817.894 471.711 811.915 465.926C805.936 460.14 797.829 456.886 789.374 456.876V456.876Z" fill="#3F3D56"/>
<path d="M798.817 481.985L792.138 491.866C792.675 492.496 792.967 493.288 792.963 494.105C792.962 495.047 792.574 495.949 791.885 496.615C791.196 497.281 790.263 497.654 789.289 497.654C788.316 497.654 787.382 497.281 786.693 496.615C786.004 495.949 785.617 495.047 785.615 494.105C785.617 493.876 785.638 493.648 785.678 493.422L781.271 490.938C780.702 491.471 779.969 491.811 779.183 491.907C778.398 492.003 777.601 491.85 776.912 491.47L772.223 495.722V499.96C772.225 500.798 772.569 501.601 773.181 502.194C773.792 502.787 774.622 503.122 775.488 503.126H803.253C804.119 503.122 804.95 502.788 805.562 502.195C806.175 501.602 806.521 500.798 806.525 499.96V484.244L802.04 481.357C801.589 481.696 801.064 481.929 800.505 482.038C799.945 482.147 799.368 482.128 798.817 481.985H798.817Z" fill="#D0826F"/>
<path d="M778.725 484.851C779.699 484.851 780.634 485.226 781.323 485.892C782.012 486.559 782.399 487.463 782.399 488.406V488.406V488.864L786.997 491.354C787.653 490.833 788.476 490.549 789.324 490.549C789.592 490.551 789.859 490.578 790.121 490.631L796.814 480.606C796.48 480.152 796.261 479.627 796.176 479.076C796.091 478.524 796.141 477.961 796.324 477.431C796.506 476.902 796.815 476.422 797.226 476.031C797.636 475.639 798.136 475.346 798.686 475.177C799.235 475.008 799.818 474.967 800.387 475.057C800.956 475.146 801.495 475.365 801.96 475.695C802.425 476.024 802.803 476.456 803.063 476.953C803.323 477.451 803.458 478.001 803.457 478.559C803.457 478.842 803.424 479.123 803.358 479.398L806.525 481.446V475.516C806.521 474.677 806.175 473.874 805.562 473.281C804.95 472.687 804.119 472.353 803.253 472.349H775.488C774.622 472.353 773.792 472.688 773.181 473.281C772.569 473.874 772.225 474.677 772.223 475.516V492.501L775.283 489.662C775.079 489.125 775.011 488.549 775.087 487.982C775.162 487.415 775.378 486.873 775.716 486.404C776.054 485.935 776.504 485.552 777.028 485.288C777.552 485.023 778.134 484.885 778.725 484.885V484.851Z" fill="#D0826F"/>
<path d="M415.296 187.134C408.521 187.134 401.899 185.19 396.265 181.547C390.632 177.905 386.241 172.728 383.649 166.671C381.056 160.614 380.378 153.95 381.699 147.52C383.021 141.09 386.284 135.183 391.074 130.548C395.865 125.912 401.969 122.755 408.614 121.476C415.259 120.197 422.146 120.853 428.405 123.362C434.665 125.871 440.015 130.12 443.779 135.571C447.543 141.022 449.552 147.43 449.552 153.986C449.542 162.775 445.929 171.2 439.507 177.414C433.086 183.628 424.378 187.124 415.296 187.134V187.134ZM415.296 123.125C408.989 123.125 402.823 124.935 397.578 128.326C392.333 131.717 388.245 136.537 385.831 142.176C383.417 147.815 382.786 154.021 384.016 160.007C385.247 165.994 388.285 171.493 392.745 175.809C397.205 180.125 402.888 183.064 409.075 184.255C415.261 185.445 421.674 184.834 427.501 182.499C433.329 180.163 438.31 176.207 441.815 171.132C445.319 166.057 447.189 160.09 447.189 153.986C447.18 145.804 443.817 137.96 437.838 132.174C431.859 126.389 423.752 123.134 415.296 123.125V123.125Z" fill="#3F3D56"/>
<path d="M397.097 166.002C396.605 166.002 396.124 165.861 395.714 165.596C395.305 165.332 394.986 164.955 394.797 164.515C394.608 164.075 394.559 163.591 394.654 163.124C394.75 162.657 394.986 162.227 395.334 161.89L407.991 149.608C408.188 149.416 408.422 149.263 408.681 149.159C408.939 149.056 409.216 149.002 409.496 149.003H409.497C409.777 149.002 410.053 149.055 410.312 149.159C410.57 149.262 410.804 149.414 411.001 149.606L416.871 155.286C416.99 155.401 417.13 155.492 417.285 155.554C417.44 155.617 417.606 155.648 417.774 155.648H417.775C417.942 155.648 418.109 155.617 418.264 155.554C418.418 155.492 418.559 155.401 418.677 155.286L426.965 147.253C427.004 147.214 427.036 147.169 427.057 147.119C427.078 147.069 427.089 147.015 427.089 146.961C427.089 146.907 427.078 146.854 427.057 146.804C427.035 146.754 427.004 146.708 426.964 146.67L424.283 144.08C424.104 143.907 423.982 143.687 423.933 143.448C423.883 143.208 423.908 142.959 424.005 142.734C424.101 142.508 424.265 142.315 424.475 142.179C424.685 142.043 424.932 141.971 425.184 141.971H434.709C435.047 141.971 435.372 142.101 435.611 142.333C435.85 142.564 435.985 142.878 435.985 143.206V152.416C435.985 152.66 435.91 152.899 435.77 153.102C435.63 153.306 435.431 153.464 435.197 153.557C434.964 153.651 434.707 153.676 434.46 153.628C434.212 153.58 433.985 153.463 433.806 153.29L431.121 150.691C431.081 150.653 431.034 150.622 430.983 150.602C430.931 150.581 430.876 150.57 430.82 150.57C430.764 150.57 430.709 150.581 430.657 150.602C430.605 150.622 430.559 150.653 430.519 150.691L419.296 161.543C419.099 161.735 418.865 161.887 418.607 161.99C418.349 162.094 418.072 162.147 417.792 162.146H417.792C417.513 162.147 417.236 162.094 416.978 161.99C416.72 161.887 416.485 161.735 416.288 161.543L410.415 155.86C410.172 155.635 409.849 155.51 409.513 155.51C409.176 155.51 408.853 155.635 408.61 155.86L398.858 165.296C398.628 165.52 398.353 165.698 398.051 165.82C397.749 165.941 397.425 166.003 397.097 166.002V166.002Z" fill="#D0826F"/>
<path d="M415.296 274.048C408.521 274.048 401.899 272.104 396.265 268.462C390.632 264.819 386.241 259.643 383.649 253.586C381.056 247.529 380.378 240.864 381.699 234.434C383.021 228.004 386.284 222.098 391.074 217.462C395.865 212.826 401.969 209.669 408.614 208.39C415.259 207.111 422.146 207.768 428.405 210.277C434.665 212.785 440.015 217.034 443.779 222.485C447.543 227.936 449.552 234.345 449.552 240.901C449.542 249.689 445.929 258.114 439.507 264.328C433.086 270.543 424.378 274.038 415.296 274.048V274.048Z" fill="#E6E6E6"/>
<path d="M557.212 184.526C550.437 184.526 543.814 182.582 538.18 178.94C532.547 175.298 528.157 170.121 525.564 164.064C522.971 158.007 522.293 151.342 523.615 144.912C524.936 138.482 528.199 132.576 532.989 127.94C537.78 123.304 543.884 120.148 550.529 118.869C557.174 117.59 564.061 118.246 570.321 120.755C576.58 123.264 581.93 127.512 585.694 132.963C589.458 138.414 591.467 144.823 591.467 151.379C591.457 160.167 587.844 168.592 581.423 174.807C575.001 181.021 566.294 184.516 557.212 184.526V184.526Z" fill="#E6E6E6"/>
<path d="M269.729 207.753C263.849 207.76 258.069 209.226 252.942 212.012C260.351 212.645 267.3 215.765 272.584 220.831C277.869 225.896 281.158 232.59 281.883 239.754C282.607 246.918 280.722 254.102 276.552 260.063C272.383 266.024 266.192 270.388 259.05 272.4C260.387 272.829 261.752 273.174 263.136 273.434C265.308 273.847 267.516 274.054 269.729 274.051C278.814 274.051 287.528 270.559 293.952 264.342C300.377 258.125 303.986 249.694 303.986 240.902C303.986 232.11 300.377 223.679 293.952 217.462C287.528 211.245 278.814 207.753 269.729 207.753V207.753Z" fill="#E6E6E6"/>
<path d="M256.732 210.239C254.561 209.818 252.353 209.608 250.139 209.613C241.331 209.604 232.857 212.875 226.474 218.748C220.091 224.621 216.287 232.645 215.852 241.158C215.417 249.67 218.384 258.019 224.137 264.472C229.891 270.926 237.99 274.99 246.756 275.822C255.522 276.654 264.283 274.19 271.222 268.941C278.162 263.693 282.748 256.061 284.031 247.629C285.314 239.197 283.194 230.61 278.112 223.649C273.029 216.688 265.374 211.886 256.732 210.239V210.239ZM259.05 272.4C254.663 273.635 250.053 273.943 245.532 273.304C241.011 272.665 236.685 271.094 232.846 268.697C229.007 266.3 225.745 263.132 223.281 259.41C220.817 255.687 219.208 251.495 218.563 247.118C217.919 242.741 218.253 238.281 219.545 234.041C220.836 229.8 223.053 225.877 226.047 222.537C229.041 219.198 232.742 216.52 236.898 214.684C241.055 212.849 245.57 211.899 250.139 211.899C251.082 211.899 252.017 211.942 252.942 212.012C260.351 212.645 267.299 215.765 272.584 220.831C277.869 225.896 281.158 232.59 281.883 239.754C282.607 246.918 280.722 254.102 276.552 260.063C272.383 266.024 266.192 270.388 259.05 272.4V272.4Z" fill="#3F3D56"/>
<path d="M270.085 236.927C268.952 232.125 265.897 227.954 261.589 225.329C257.282 222.705 252.074 221.842 247.109 222.929C246.624 223.036 246.122 223.168 245.68 223.3L250.258 242.765L270.374 238.343C270.289 237.891 270.195 237.396 270.085 236.927Z" fill="#D0826F"/>
<path d="M268.136 241.761L248.011 246.182L243.442 226.717C239.933 227.767 236.809 229.769 234.441 232.486C232.072 235.202 230.558 238.518 230.078 242.042C229.598 245.566 230.172 249.149 231.732 252.366C233.293 255.583 235.774 258.3 238.881 260.195C241.989 262.089 245.593 263.082 249.266 263.055C252.938 263.028 256.526 261.982 259.603 260.042C262.681 258.101 265.119 255.348 266.628 252.108C268.137 248.868 268.655 245.277 268.119 241.761H268.136Z" fill="#D0826F"/>
<path d="M621.765 397.591C614.99 397.591 608.367 395.647 602.734 392.004C597.1 388.362 592.71 383.185 590.117 377.128C587.524 371.071 586.846 364.407 588.168 357.977C589.489 351.547 592.752 345.64 597.543 341.005C602.333 336.369 608.437 333.212 615.082 331.933C621.727 330.654 628.615 331.31 634.874 333.819C641.133 336.328 646.483 340.577 650.247 346.028C654.011 351.479 656.02 357.887 656.02 364.443C656.01 373.231 652.398 381.657 645.976 387.871C639.554 394.085 630.847 397.581 621.765 397.591V397.591ZM621.765 333.582C615.457 333.582 609.291 335.392 604.046 338.783C598.801 342.174 594.714 346.994 592.3 352.633C589.886 358.272 589.254 364.478 590.485 370.464C591.715 376.451 594.753 381.95 599.213 386.266C603.673 390.582 609.356 393.521 615.543 394.712C621.729 395.902 628.142 395.291 633.97 392.955C639.797 390.62 644.778 386.664 648.283 381.589C651.787 376.514 653.658 370.547 653.658 364.443C653.648 356.261 650.285 348.417 644.306 342.631C638.327 336.846 630.22 333.591 621.765 333.582V333.582Z" fill="#3F3D56"/>
<path d="M636.546 377.725C635.292 377.726 634.066 377.367 633.023 376.693C631.98 376.02 631.167 375.062 630.686 373.942C630.206 372.821 630.079 371.588 630.323 370.398C630.567 369.208 631.17 368.114 632.056 367.256C632.942 366.397 634.071 365.812 635.3 365.575C636.53 365.337 637.805 365.458 638.963 365.921C640.122 366.385 641.113 367.171 641.81 368.179C642.507 369.187 642.88 370.373 642.881 371.586C642.881 373.213 642.214 374.773 641.026 375.924C639.838 377.075 638.227 377.723 636.546 377.725ZM621.765 377.725C620.085 377.723 618.475 377.077 617.287 375.927C616.1 374.778 615.432 373.22 615.43 371.595V357.292C615.432 355.667 616.1 354.11 617.288 352.962C618.476 351.814 620.086 351.169 621.765 351.169C623.444 351.169 625.054 351.814 626.242 352.962C627.43 354.11 628.098 355.667 628.1 357.292V371.595C628.098 373.22 627.43 374.778 626.242 375.927C625.055 377.077 623.444 377.723 621.765 377.725V377.725ZM606.988 377.725C605.308 377.723 603.696 377.076 602.508 375.926C601.319 374.776 600.651 373.217 600.649 371.59V365.876C600.649 364.249 601.317 362.689 602.506 361.538C603.695 360.388 605.307 359.741 606.988 359.741C608.67 359.741 610.282 360.388 611.471 361.538C612.66 362.689 613.328 364.249 613.328 365.876V371.59C613.326 373.217 612.657 374.776 611.469 375.926C610.281 377.076 608.669 377.723 606.988 377.725V377.725Z" fill="#D0826F"/>
<path d="M187.391 513.157L197.832 512.011L198.231 472.495L182.821 474.188L187.391 513.157Z" fill="#FFB8B8"/>
<path d="M219.069 519.181L186.254 522.784L184.815 510.516L204.952 508.305C208.314 507.936 211.69 508.874 214.338 510.914C216.985 512.954 218.687 515.927 219.069 519.181V519.181L219.069 519.181Z" fill="#2F2E41"/>
<path d="M80.0123 512.526L90.5203 512.525L95.5188 473.305L80.0105 473.306L80.0123 512.526Z" fill="#FFB8B8"/>
<path d="M110.786 521.967L77.7606 521.968L77.76 509.621L98.0256 509.62C101.41 509.62 104.655 510.921 107.048 513.236C109.441 515.552 110.786 518.692 110.786 521.967V521.967L110.786 521.967Z" fill="#2F2E41"/>
<path d="M155.405 337.136L161.405 356.021L193.975 424.223L202.546 488.915L182.833 489.744L170.833 430.028L129.691 386.9L93.6926 499.697L77.4074 498.038C77.4074 498.038 91.1213 352.065 109.978 337.136C109.978 337.136 140.834 323.037 155.405 337.136Z" fill="#3B4358"/>
<path d="M128.79 255.652C140.417 255.652 149.842 246.532 149.842 235.281C149.842 224.031 140.417 214.91 128.79 214.91C117.164 214.91 107.739 224.031 107.739 235.281C107.739 246.532 117.164 255.652 128.79 255.652Z" fill="#FFB8B8"/>
<path d="M157.548 340.869C157.548 340.869 160.119 256.271 124.12 262.076C88.1213 267.882 103.121 349.577 103.121 349.577C103.121 349.577 110.835 364.506 129.691 347.919C148.548 331.331 157.548 340.869 157.548 340.869Z" fill="#D0826F"/>
<path d="M232.075 270.453C231.399 271.482 230.498 272.355 229.436 273.011C228.373 273.667 227.175 274.089 225.926 274.249C224.677 274.408 223.407 274.3 222.205 273.933C221.004 273.566 219.9 272.949 218.972 272.124L192.007 286.182L193.419 270.841L218.808 259.844C220.343 258.426 222.362 257.603 224.482 257.53C226.602 257.457 228.676 258.139 230.311 259.447C231.947 260.754 233.029 262.597 233.354 264.626C233.679 266.654 233.224 268.728 232.074 270.453L232.075 270.453Z" fill="#FFB8B8"/>
<path d="M128.589 272.405L172.359 279.565L211.584 261.647L217.539 273.969L174.6 300.434C174.6 300.434 129.14 303.421 118.63 291.821C114.688 287.47 114.238 283.511 115.214 280.261C116.069 277.598 117.901 275.33 120.365 273.883C122.828 272.436 125.753 271.91 128.589 272.405V272.405Z" fill="#D0826F"/>
<path d="M126.287 256.686C126.387 256.598 126.466 256.49 126.515 256.368C126.565 256.247 126.584 256.116 126.572 255.985C126.56 255.855 126.517 255.73 126.446 255.618C126.376 255.507 126.279 255.413 126.164 255.345C124.295 254.224 122.772 252.638 121.755 250.751C120.738 248.864 120.265 246.748 120.386 244.623C120.507 242.499 121.216 240.445 122.441 238.677C123.665 236.91 125.359 235.494 127.344 234.579C133.533 231.723 141.92 233.945 146.495 228.458C147.426 227.284 148.084 225.929 148.424 224.487C148.765 223.045 148.78 221.548 148.469 220.1C147.481 214.917 143.455 211.068 138.946 208.431C133.407 205.19 127.04 203.516 120.568 203.597C114.096 203.679 107.777 205.513 102.327 208.891C96.8767 212.27 92.5133 217.058 89.7311 222.713C86.949 228.368 85.8593 234.665 86.5855 240.888C87.1675 245.876 88.7581 251.469 85.693 255.519C82.9953 259.084 77.9034 259.752 73.4304 260.638C63.8366 262.537 54.581 266.919 48.0705 273.998C41.5599 281.076 38.0867 291.007 40.0497 300.29C42.0126 309.574 49.8877 317.733 59.5667 319.172C67.4451 320.343 75.58 317.105 81.3654 311.8C87.1508 306.494 90.8077 299.33 93.1143 291.947C95.8521 283.184 96.932 273.741 101.875 265.935C106.712 258.297 117.135 252.821 125.304 256.799C125.461 256.879 125.638 256.91 125.814 256.89C125.989 256.869 126.154 256.798 126.287 256.686V256.686Z" fill="#E4C095"/>
<path d="M736.35 407.469C737.489 406.92 738.49 406.136 739.282 405.173C740.075 404.209 740.639 403.09 740.936 401.892C741.233 400.695 741.255 399.449 741 398.243C740.745 397.036 740.22 395.898 739.462 394.909L759.745 286.288L740.818 286.047L726.732 393.459C725.1 394.802 724.033 396.677 723.734 398.73C723.435 400.783 723.925 402.871 725.11 404.597C726.296 406.324 728.095 407.57 730.166 408.099C732.238 408.629 734.438 408.404 736.35 407.469H736.35Z" fill="#A0616A"/>
<path d="M677.605 402.319L670.42 435.346L671.318 509.224H684.791L691.078 437.085L700.958 406.665L677.605 402.319Z" fill="#A0616A"/>
<path d="M722.133 404.797L714.947 437.824L715.845 511.702H729.318L735.606 439.563L745.486 409.143L722.133 404.797Z" fill="#A0616A"/>
<path d="M666.613 508.384L687.849 508.332L687.883 521.271L653.275 521.355C653.27 519.656 653.612 517.972 654.28 516.401C654.948 514.829 655.929 513.401 657.167 512.196C658.406 510.992 659.878 510.035 661.498 509.381C663.119 508.727 664.857 508.388 666.613 508.384V508.384Z" fill="#2F2E41"/>
<path d="M711.471 509.781L732.708 509.729L732.741 522.668L698.133 522.752C698.129 521.053 698.47 519.37 699.138 517.798C699.806 516.227 700.787 514.798 702.026 513.593C703.264 512.389 704.736 511.432 706.357 510.778C707.977 510.124 709.715 509.785 711.471 509.781V509.781Z" fill="#2F2E41"/>
<path d="M710.389 240.348C722.573 240.348 732.45 230.791 732.45 219.001C732.45 207.211 722.573 197.654 710.389 197.654C698.206 197.654 688.329 207.211 688.329 219.001C688.329 230.791 698.206 240.348 710.389 240.348Z" fill="#A0616A"/>
<path d="M759.142 271.801C752.43 261.61 731.356 237.44 699.999 251.313C697.528 252.419 695.466 254.23 694.09 256.503C692.715 258.776 692.091 261.402 692.303 264.029C693.821 283.41 695.735 332.789 679.402 362.338C679.402 362.338 727.006 376.244 753.054 363.207C753.054 363.207 744.072 304.974 753.054 293.676C756.049 290.065 758.474 286.044 760.251 281.746C760.875 280.118 761.099 278.373 760.907 276.647C760.714 274.921 760.11 273.262 759.142 271.801V271.801Z" fill="#3F3D56"/>
<path d="M750.359 271.078L759.174 274.632C759.761 274.868 760.265 275.262 760.629 275.767C760.993 276.271 761.2 276.866 761.226 277.48L762.036 296.283L742.276 294.545L750.359 271.078Z" fill="#3F3D56"/>
<path d="M682.994 360.6C682.994 360.6 663.234 396.235 666.827 429.262L694.671 433.608L714.431 387.543L709.94 434.477L738.683 435.346C738.683 435.346 757.545 367.553 751.257 361.469L682.994 360.6Z" fill="#2F2E41"/>
<path d="M654.93 363.78C656.188 363.594 657.388 363.143 658.446 362.46C659.505 361.776 660.395 360.876 661.055 359.823C661.715 358.771 662.129 357.591 662.267 356.367C662.405 355.143 662.263 353.904 661.853 352.739L701.938 279.617L683.989 273.8L650.187 347.6C648.209 348.397 646.602 349.868 645.67 351.735C644.738 353.601 644.547 355.734 645.131 357.728C645.716 359.723 647.036 361.441 648.842 362.556C650.648 363.671 652.814 364.107 654.93 363.78H654.93Z" fill="#A0616A"/>
<path d="M707.411 259.823L699.987 256.609C699.987 256.609 693.691 252.833 688.111 261.142C682.531 269.452 676.504 287.661 676.504 287.661L700.728 294.257L707.411 259.823Z" fill="#3F3D56"/>
<path d="M713.923 229.278C714.716 226.617 714.487 223.016 711.82 222.009C710.431 221.485 708.881 221.899 707.398 222.046C704.495 222.322 701.59 221.548 699.242 219.873C696.484 217.889 694.78 214.857 693.163 211.923L690.716 207.485C690.172 206.56 689.707 205.593 689.328 204.594C687.966 200.676 689.445 196.141 692.471 193.224C695.633 190.377 699.795 188.798 704.114 188.807C708.399 188.837 712.633 189.714 716.555 191.386C723.526 194.135 729.84 198.24 735.106 203.445C738.548 206.852 741.681 211.291 740.962 216.004C740.402 219.673 737.638 222.611 735.002 225.304L725.441 235.07C723.748 236.8 721.939 238.6 719.574 239.265C717.21 239.93 714.164 238.953 713.519 236.654C713.519 236.654 713.131 231.939 713.923 229.278Z" fill="#2F2E41"/>
<path d="M846.102 523H0.898197C0.659981 523 0.43152 522.908 0.263075 522.745C0.0946305 522.582 0 522.361 0 522.131C0 521.9 0.0946305 521.679 0.263075 521.516C0.43152 521.353 0.659981 521.262 0.898197 521.262H846.102C846.34 521.262 846.569 521.353 846.737 521.516C846.905 521.679 847 521.9 847 522.131C847 522.361 846.905 522.582 846.737 522.745C846.569 522.908 846.34 523 846.102 523Z" fill="#3F3D56"/>
<path d="M569.489 256.669H544.339C543.625 256.669 542.939 256.395 542.434 255.906C541.929 255.417 541.645 254.754 541.645 254.062C541.645 253.371 541.929 252.707 542.434 252.218C542.939 251.729 543.625 251.455 544.339 251.455H569.489C570.204 251.455 570.889 251.729 571.394 252.218C571.9 252.707 572.184 253.371 572.184 254.062C572.184 254.754 571.9 255.417 571.394 255.906C570.889 256.395 570.204 256.669 569.489 256.669V256.669Z" fill="#D0826F"/>
<path d="M569.489 245.371H544.339C543.625 245.371 542.939 245.096 542.434 244.607C541.929 244.118 541.645 243.455 541.645 242.763C541.645 242.072 541.929 241.408 542.434 240.919C542.939 240.43 543.625 240.156 544.339 240.156H569.489C570.204 240.156 570.889 240.43 571.394 240.919C571.9 241.408 572.184 242.072 572.184 242.763C572.184 243.455 571.9 244.118 571.394 244.607C570.889 245.096 570.204 245.371 569.489 245.371V245.371Z" fill="#D0826F"/>
<path d="M569.489 234.072H544.339C543.625 234.072 542.939 233.797 542.434 233.308C541.929 232.819 541.645 232.156 541.645 231.464C541.645 230.773 541.929 230.11 542.434 229.621C542.939 229.132 543.625 228.857 544.339 228.857H569.489C570.204 228.857 570.889 229.132 571.394 229.621C571.9 230.11 572.184 230.773 572.184 231.464C572.184 232.156 571.9 232.819 571.394 233.308C570.889 233.797 570.204 234.072 569.489 234.072V234.072Z" fill="#D0826F"/>
</svg>
